<svg width="30" height="24" viewBox="0 0 30 24" fill="none" xmlns="http://www.w3.org/2000/svg">
<path d="M2.8125 0.646973C1.25977 0.646973 0 1.90674 0 3.45947C0 4.34424 0.416015 5.17627 1.125 5.70947L13.3125 14.8501C14.3145 15.6001 15.6855 15.6001 16.6875 14.8501L28.875 5.70947C29.584 5.17627 30 4.34424 30 3.45947C30 1.90674 28.7402 0.646973 27.1875 0.646973H2.8125ZM0 8.38135V19.397C0 21.4653 1.68164 23.147 3.75 23.147H26.25C28.3184 23.147 30 21.4653 30 19.397V8.38135L18.375 17.1001C16.377 18.6001 13.623 18.6001 11.625 17.1001L0 8.38135Z" fill="white"/>
</svg>
