<svg width="24" height="31" viewBox="0 0 24 31" fill="none" xmlns="http://www.w3.org/2000/svg">
<path d="M0.818447 11.8834C0.818447 5.81348 5.82816 0.896973 12.0029 0.896973C18.1777 0.896973 23.1874 5.81348 23.1874 11.8834C23.1874 18.8329 16.1854 27.163 13.2612 30.3377C12.5738 31.0834 11.4262 31.0834 10.7388 30.3377C7.81456 27.163 0.812622 18.8329 0.812622 11.8834H0.818447ZM12.0029 15.8096C14.0592 15.8096 15.7311 14.1377 15.7311 12.0814C15.7311 10.0251 14.0592 8.35328 12.0029 8.35328C9.9466 8.35328 8.27476 10.0251 8.27476 12.0814C8.27476 14.1377 9.9466 15.8096 12.0029 15.8096Z" fill="white"/>
</svg>
