<svg width="30" height="31" viewBox="0 0 30 31" fill="none" xmlns="http://www.w3.org/2000/svg">
<path d="M9.38272 2.36285C8.9198 1.25537 7.7127 0.669402 6.5642 0.979965L6.24192 1.06786C2.45656 2.09917 -0.777993 5.76734 0.165418 10.2324C2.33936 20.4869 10.4082 28.5557 20.6626 30.7296C25.1336 31.6789 28.7959 28.4385 29.8272 24.6531L29.9151 24.3308C30.2315 23.1765 29.6397 21.9694 28.5381 21.5123L22.8366 19.1392C21.8697 18.7348 20.7505 19.0161 20.0825 19.8306L17.8207 22.5964C13.7013 20.5513 10.3847 17.1293 8.48032 12.9279L11.0703 10.8184C11.8848 10.1562 12.1602 9.03704 11.7618 8.06434L9.38272 2.36285Z" fill="white"/>
</svg>
